<?xml version="1.0" encoding="utf-8"?>
<!-- Generator: Adobe Illustrator 25.3.0, SVG Export Plug-In . SVG Version: 6.00 Build 0)  -->
<svg version="1.1" id="Calque_1" xmlns="http://www.w3.org/2000/svg" xmlns:xlink="http://www.w3.org/1999/xlink" x="0px" y="0px"
	 viewBox="0 0 844.1 175.7" style="enable-background:new 0 0 844.1 175.7;" xml:space="preserve">
<g transform="matrix(1, 0, 0, 1, 0, 0)">
	<path d="M12.5,149.5c3.9,0,0.7,17,11.8,21.6s795.6,0,795.6,0v-12.4l24.2-20.3l-6.5-7.2v-4.6l-8.5-3.3h-5.9l-2,13.8h-4.8v-13.8h-6.1
		v13.8h-11.6v-11.4h2.8v-6.3h9.2v-8.5H661.8v-4.8h-10.9v4.8h-51.5v-4.8h-20.1v4.8h-57v-4.8h-7v4.8h-9.8v-4.8h-7v4.8h-9.8v-4.8h-7
		v4.8h-9.8v-5.3l6.3-3.3L473,96h-8.5l-7.6,8.7l-2.2-7.4l-2.2-9.4H447l-1.1,6.1v1v15.8h-14.5l1.9-7.4l7.9-10.3l1.5-4.1l-5.2-3.3v-12
		h-7.9v-25H425v25h-21.4v-7.1h5.2V54.4h-2.4V38h10v-9.4h-21V14.4h2.4V0h-4.3v9.6h-1.4v0.9h-6.8v12h6.8v58.8l-3.3,6.7l-4.4-1.7
		l-2.6-3.9h-6.5v5.5l-3.7,2.6l-5.5-2.6l-4.4,4.4l2.8,5.5l-4.4,3.7l-4.6-2.4l-8.5-1.3l-2.6,5.5l5.2,1.7v6.1h-16.2V105h-4.1v6.1h-22.9
		V105h-4.1v6.1h-22.9V105h-4.1v6.1h-21.8V95.6h-7.9v15.3h-19V92.6h-10.7v18.3h-18.3V92.6h-10.9v18.3H34.1l-2,8.5h8.5v17H20.3v-11.8
		h-7.9v13.8H2C2,138.4,0,143.6,12.5,149.5z M778.8,125.7h17v11.4h-17V125.7z M764,119.4h10v17.7h-10V119.4z M753.7,119.4h6.8v17.7
		h-6.8V119.4z M562.9,116.3h10v8.3h-10V116.3z M547.9,116.3h11.8v8.3h-11.8V116.3z M535,116.3h9.6v8.3H535V116.3z M395.5,38h6.4
		v16.4h-6.4V38z M395.5,66.6h4.8v7.2h-4.8V66.6z M266.7,121.1h88.2l7,5.7V142h-12l-1.1-7.3h-10.5l-1.7,3.1h-8.7v-4.2h-4.6v5.9h-8.9
		v-2.9h-10.7l-3.2,3.2l-3.6-3.6v-8.9h-5.2v10.9h-24.9L266.7,121.1L266.7,121.1z M155.4,117.2h7.9v4.8h-7.9V117.2z M141.2,117.2h7.9
		v4.8h-7.9V117.2z M127,117.2h7.9v4.8H127V117.2z M98,119.2h14v6.5H98V119.2z M72,119.2h19.4v6.5H72V119.2z M53.1,119.2H66v6.5H53.1
		V119.2z"/>
</g>
</svg>
