<?xml version="1.0" encoding="utf-8"?>
<!-- Generator: Adobe Illustrator 25.3.0, SVG Export Plug-In . SVG Version: 6.00 Build 0)  -->
<svg version="1.1" id="Calque_1" xmlns="http://www.w3.org/2000/svg" xmlns:xlink="http://www.w3.org/1999/xlink" x="0px" y="0px"
	 viewBox="0 0 249.6 83.7" style="enable-background:new 0 0 249.6 83.7;" xml:space="preserve">
<g transform="matrix(1, 0, 0, 1, 434.1851806640627, 451.7280273437501)">
	<path d="M-232.6-425.3h29.6v36h-29.6V-425.3z"/>
	<path d="M-236.2-440.9h36.6v4.6h-36.6V-440.9z"/>
	<path d="M-224-451.7h-5.1l-0.1,1.7h5.2V-451.7z"/>
	<path d="M-224-448.2h-5.4l-0.8,9.1h6.3v-6.7V-448.2z"/>
	<path d="M-223-445.8v6.7h2.9L-223-445.8z"/>
	<path d="M-227.9-433.8h-1.2c-0.9,0-1.7,0.8-1.7,1.7v1.7c0,0.9,0.8,1.7,1.7,1.7h1.2c0.9,0,1.7-0.8,1.7-1.7v-1.7
		C-226.2-433-227-433.8-227.9-433.8z"/>
	<path d="M-220.8-433.8h-1.2c-0.9,0-1.7,0.8-1.7,1.7v1.7c0,0.9,0.8,1.7,1.7,1.7h1.2c0.9,0,1.7-0.8,1.7-1.7v-1.7
		C-219.1-433-219.8-433.8-220.8-433.8z"/>
	<path d="M-213.6-433.8h-1.2c-0.9,0-1.7,0.8-1.7,1.7v1.7c0,0.9,0.8,1.7,1.7,1.7h1.2c0.9,0,1.7-0.8,1.7-1.7v-1.7
		C-211.9-433-212.7-433.8-213.6-433.8z"/>
	<path d="M-206.5-433.8h-1.2c-0.9,0-1.7,0.8-1.7,1.7v1.7c0,0.9,0.8,1.7,1.7,1.7h1.2c0.9,0,1.7-0.8,1.7-1.7v-1.7
		C-204.8-433-205.5-433.8-206.5-433.8z"/>
	<g transform="matrix(1.063893437385559, 0, 0, 1.063893437385559, -49.421424865722656, -18.263946533203068)">
		<path d="M-251.6-365.1h-71.2l-8.1,8.1v12.7h81v-20.9H-251.6z"/>
		<g transform="matrix(1, 0, 0, 1, 0, 0)">
			<path d="M-240.1-360.8h-1.7c-1.3,0-2.4,1.1-2.4,2.4v2.3c0,1.3,1.1,2.4,2.4,2.4h1.7c1.3,0,2.4-1.1,2.4-2.4v-2.3
				C-237.7-359.7-238.8-360.8-240.1-360.8z"/>
			<path d="M-230.3-360.8h-1.7c-1.3,0-2.4,1.1-2.4,2.4v2.3c0,1.3,1.1,2.4,2.4,2.4h1.7c1.3,0,2.4-1.1,2.4-2.4v-2.3
				C-227.9-359.7-229-360.8-230.3-360.8z"/>
			<path d="M-220.5-360.8h-1.7c-1.3,0-2.4,1.1-2.4,2.4v2.3c0,1.3,1.1,2.4,2.4,2.4h1.7c1.3,0,2.4-1.1,2.4-2.4v-2.3
				C-218.1-359.7-219.2-360.8-220.5-360.8z"/>
			<path d="M-210.7-360.8h-1.7c-1.3,0-2.4,1.1-2.4,2.4v2.3c0,1.3,1.1,2.4,2.4,2.4h1.7c1.3,0,2.4-1.1,2.4-2.4v-2.3
				C-208.4-359.7-209.4-360.8-210.7-360.8z"/>
			<path d="M-201-360.8h-1.7c-1.3,0-2.4,1.1-2.4,2.4v2.3c0,1.3,1.1,2.4,2.4,2.4h1.7c1.3,0,2.4-1.1,2.4-2.4v-2.3
				C-198.6-359.7-199.7-360.8-201-360.8z"/>
			<path d="M-191.2-360.8h-1.7c-1.3,0-2.4,1.1-2.4,2.4v2.3c0,1.3,1.1,2.4,2.4,2.4h1.7c1.3,0,2.4-1.1,2.4-2.4v-2.3
				C-188.8-359.7-189.8-360.8-191.2-360.8z"/>
			<path d="M-181.4-360.8h-1.7c-1.3,0-2.4,1.1-2.4,2.4v2.3c0,1.3,1.1,2.4,2.4,2.4h1.7c1.3,0,2.4-1.1,2.4-2.4v-2.3
				C-179-359.7-180.1-360.8-181.4-360.8z"/>
		</g>
		<g transform="matrix(1, 0, 0, 1, 0, 0)">
			<path d="M-297.3-380.6c-1.3,0-2.4,1.1-2.4,2.4h57c1.3,0,2.4-1.1,2.4-2.4H-297.3z"/>
			<g transform="matrix(0.3527164161205292, 0, 0, 0.3527164161205292, -71.65408325195312, 202.14833068847656)">
				<path d="M-642.2-1636.8c-3.8,0-6.9,3.1-6.9,6.9v2.3c0,3.8,3.1,6.9,6.9,6.9s6.9-3.1,6.9-6.9v-2.3
					C-635.3-1633.7-638.4-1636.8-642.2-1636.8z"/>
				<path d="M-619.2-1636.8c-3.8,0-6.9,3.1-6.9,6.9v2.3c0,3.8,3.1,6.9,6.9,6.9s6.9-3.1,6.9-6.9v-2.3
					C-612.3-1633.7-615.4-1636.8-619.2-1636.8z"/>
				<path d="M-596.2-1636.8c-3.8,0-6.9,3.1-6.9,6.9v2.3c0,3.8,3.1,6.9,6.9,6.9s6.9-3.1,6.9-6.9v-2.3
					C-589.3-1633.7-592.4-1636.8-596.2-1636.8z"/>
				<path d="M-573.2-1636.8c-3.8,0-6.9,3.1-6.9,6.9v2.3c0,3.8,3.1,6.9,6.9,6.9c3.8,0,6.9-3.1,6.9-6.9v-2.3
					C-566.2-1633.7-569.4-1636.8-573.2-1636.8z"/>
				<path d="M-550.2-1636.8c-3.8,0-6.9,3.1-6.9,6.9v2.3c0,3.8,3.1,6.9,6.9,6.9s6.9-3.1,6.9-6.9v-2.3
					C-543.2-1633.7-546.3-1636.8-550.2-1636.8z"/>
				<path d="M-527.2-1636.8c-3.8,0-6.9,3.1-6.9,6.9v2.3c0,3.8,3.1,6.9,6.9,6.9s6.9-3.1,6.9-6.9v-2.3
					C-520.2-1633.7-523.3-1636.8-527.2-1636.8z"/>
				<path d="M-504.1-1636.8c-3.8,0-6.9,3.1-6.9,6.9v2.3c0,3.8,3.1,6.9,6.9,6.9c3.8,0,6.9-3.1,6.9-6.9v-2.3
					C-497.2-1633.7-500.3-1636.8-504.1-1636.8z"/>
			</g>
		</g>
		<g transform="matrix(1, 0, 0, 1, 62.039375305175795, -0.000010663863577065058)">
			<path d="M-297.3-380.6c-1.3,0-2.4,1.1-2.4,2.4h57c1.3,0,2.4-1.1,2.4-2.4H-297.3z"/>
			<g transform="matrix(0.3527164161205292, 0, 0, 0.3527164161205292, -71.65408325195312, 202.14833068847656)">
				<path d="M-642.2-1636.8c-3.8,0-6.9,3.1-6.9,6.9v2.3c0,3.8,3.1,6.9,6.9,6.9s6.9-3.1,6.9-6.9v-2.3
					C-635.3-1633.7-638.4-1636.8-642.2-1636.8z"/>
				<path d="M-619.2-1636.8c-3.8,0-6.9,3.1-6.9,6.9v2.3c0,3.8,3.1,6.9,6.9,6.9c3.8,0,6.9-3.1,6.9-6.9v-2.3
					C-612.3-1633.7-615.4-1636.8-619.2-1636.8z"/>
				<path d="M-596.2-1636.8c-3.8,0-6.9,3.1-6.9,6.9v2.3c0,3.8,3.1,6.9,6.9,6.9s6.9-3.1,6.9-6.9v-2.3
					C-589.3-1633.7-592.4-1636.8-596.2-1636.8z"/>
				<path d="M-573.2-1636.8c-3.8,0-6.9,3.1-6.9,6.9v2.3c0,3.8,3.1,6.9,6.9,6.9s6.9-3.1,6.9-6.9v-2.3
					C-566.2-1633.7-569.4-1636.8-573.2-1636.8z"/>
				<path d="M-550.2-1636.8c-3.8,0-6.9,3.1-6.9,6.9v2.3c0,3.8,3.1,6.9,6.9,6.9s6.9-3.1,6.9-6.9v-2.3
					C-543.2-1633.7-546.3-1636.8-550.2-1636.8z"/>
				<path d="M-527.2-1636.8c-3.8,0-6.9,3.1-6.9,6.9v2.3c0,3.8,3.1,6.9,6.9,6.9s6.9-3.1,6.9-6.9v-2.3
					C-520.2-1633.7-523.3-1636.8-527.2-1636.8z"/>
				<path d="M-504.1-1636.8c-3.8,0-6.9,3.1-6.9,6.9v2.3c0,3.8,3.1,6.9,6.9,6.9s6.9-3.1,6.9-6.9v-2.3
					C-497.2-1633.7-500.3-1636.8-504.1-1636.8z"/>
			</g>
		</g>
		<g transform="matrix(1, 0, 0, 1, 62.03936004638673, -16.063034057617184)">
			<path d="M-297.3-380.6c-1.3,0-2.4,1.1-2.4,2.4h57c1.3,0,2.4-1.1,2.4-2.4H-297.3z"/>
			<g transform="matrix(0.3527164161205292, 0, 0, 0.3527164161205292, -71.65408325195312, 202.14833068847656)">
				<path d="M-642.2-1636.8c-3.8,0-6.9,3.1-6.9,6.9v2.3c0,3.8,3.1,6.9,6.9,6.9s6.9-3.1,6.9-6.9v-2.3
					C-635.3-1633.7-638.4-1636.8-642.2-1636.8z"/>
				<path d="M-619.2-1636.8c-3.8,0-6.9,3.1-6.9,6.9v2.3c0,3.8,3.1,6.9,6.9,6.9c3.8,0,6.9-3.1,6.9-6.9v-2.3
					C-612.3-1633.7-615.4-1636.8-619.2-1636.8z"/>
				<path d="M-596.2-1636.8c-3.8,0-6.9,3.1-6.9,6.9v2.3c0,3.8,3.1,6.9,6.9,6.9s6.9-3.1,6.9-6.9v-2.3
					C-589.3-1633.7-592.4-1636.8-596.2-1636.8z"/>
				<path d="M-573.2-1636.8c-3.8,0-6.9,3.1-6.9,6.9v2.3c0,3.8,3.1,6.9,6.9,6.9s6.9-3.1,6.9-6.9v-2.3
					C-566.2-1633.7-569.4-1636.8-573.2-1636.8z"/>
				<path d="M-550.2-1636.8c-3.8,0-6.9,3.1-6.9,6.9v2.3c0,3.8,3.1,6.9,6.9,6.9s6.9-3.1,6.9-6.9v-2.3
					C-543.2-1633.7-546.3-1636.8-550.2-1636.8z"/>
				<path d="M-527.2-1636.8c-3.8,0-6.9,3.1-6.9,6.9v2.3c0,3.8,3.1,6.9,6.9,6.9s6.9-3.1,6.9-6.9v-2.3
					C-520.2-1633.7-523.3-1636.8-527.2-1636.8z"/>
				<path d="M-504.1-1636.8c-3.8,0-6.9,3.1-6.9,6.9v2.3c0,3.8,3.1,6.9,6.9,6.9s6.9-3.1,6.9-6.9v-2.3
					C-497.2-1633.7-500.3-1636.8-504.1-1636.8z"/>
			</g>
		</g>
	</g>
	<path d="M-407.4-377.8c12.2,2.6,25.6,4.5,39.3,4.5h161.9l-7.5-18.4c0,0-171.9,5.5-220.5-22.3C-434.2-414-428.8-396.1-407.4-377.8z"
		/>
	<path d="M-241.1-392.1h-134.2c-11.4,0-22.5-1.5-32.6-3.7c12.6,10.8,32,21.8,61.4,27.8h145.3l16.7-24.1H-241.1z"/>
	<path d="M-425-400.5c4.6,13.1,14.2,27.3,34,32.4h45.3c-29.4-6-48.8-16.9-61.4-27.8C-413.6-397.2-419.6-398.8-425-400.5z"/>
</g>
</svg>
