<?xml version="1.0" encoding="utf-8"?>
<!-- Generator: Adobe Illustrator 25.3.0, SVG Export Plug-In . SVG Version: 6.00 Build 0)  -->
<svg version="1.1" id="Calque_1" xmlns="http://www.w3.org/2000/svg" xmlns:xlink="http://www.w3.org/1999/xlink" x="0px" y="0px"
	 viewBox="0 0 134.1 42.6" style="enable-background:new 0 0 134.1 42.6;" xml:space="preserve">
<path d="M29.6,40.8c-0.3,0-1,0-2.1,0s-2.4,0-3.9,0.1c-1.5,0-3.1,0.1-4.8,0.2s-3.3,0.2-4.7,0.3c-1.4,0.1-2.7,0.3-3.6,0.5
	c-1,0.2-1.5,0.4-1.7,0.7c0,0-0.1-0.1-0.2-0.3c-0.1-0.1-0.2-0.3-0.2-0.4c-0.1-0.2-0.1-0.3-0.2-0.4c-0.1-0.1-0.1-0.2-0.1-0.3
	c0-0.1,0-0.4,0.1-0.7c0.1-0.3,0.2-0.6,0.2-0.7h0.1h0.1c0,0,0.1,0,0.2,0c0.1,0,0.2,0.2,0.4,0.3c0.2,0.2,0.3,0.3,0.3,0.4v-1.4
	c0-0.1-0.1-0.1-0.4-0.2c-0.3-0.1-0.6-0.1-0.9-0.1c-0.3,0-0.7,0-1-0.1c-0.3,0-0.6,0-0.7,0c-0.1,0-0.2,0-0.4,0s-0.4,0-0.4,0
	c-0.2,0.3-0.4,0.7-0.5,1.2S5,40.8,5,41.1H2.7v-2.8c-0.4,0.1-0.7-0.1-1-0.4S1.2,37.2,1,36.6c-0.2-0.5-0.4-1.1-0.5-1.8
	c-0.1-0.6-0.2-1.3-0.3-1.9s-0.1-1.1-0.1-1.6s0-0.8,0-0.9c0,0,0-0.2,0-0.4c0-0.2,0-0.3,0-0.4l0.3,0.7h21.1c0,0,0.1-0.1,0.2-0.2
	c0.1-0.1,0.1-0.1,0.2-0.2c0.1,0,0.2-0.1,0.5-0.1c0.2,0,0.5-0.1,0.7-0.1c0.3,0,0.5-0.1,0.8-0.1c0.2,0,0.4,0,0.5,0v-0.7l-3.9-0.7
	c0.8-0.1,1.8-0.1,2.9-0.2c1.1-0.1,2.1-0.1,3.1-0.1c0.1,0,0.3,0,0.5,0s0.3,0,0.5,0.1c0.1,0,0.3,0.1,0.4,0.3c0.1,0.1,0.2,0.3,0.2,0.5
	c0,0,0,0.1,0,0.2s-0.2,0.2-0.3,0.4c-0.2,0.2-0.3,0.3-0.4,0.3h3.5c0,0,0,0.1,0.1,0.3c0.1,0.2,0.2,0.3,0.3,0.5s0.2,0.3,0.3,0.3h2.3
	c0-0.5,0-0.8-0.1-1s-0.2-0.3-0.3-0.4c-0.1-0.1-0.2-0.1-0.3-0.2c-0.1,0-0.1-0.1-0.1-0.3c0-0.4,0.1-0.6,0.2-0.8
	c0.1-0.2,0.2-0.3,0.4-0.4c0.2-0.1,0.3-0.2,0.5-0.3c0.2-0.1,0.3-0.3,0.4-0.6h7.9V11.9l-0.7-0.5h3.3V6.7l0.5,5.1h-2.5v14.9l0.7,0.7
	h5.7c-0.1-0.4,0-0.6,0.2-0.7s0.4-0.1,0.6-0.1s0.4,0,0.7,0.1c0.2,0.1,0.3,0.3,0.2,0.7H53c-0.1-0.5-0.1-0.8,0.1-0.9
	c0.2-0.2,0.5-0.2,0.8-0.2s0.5,0.1,0.8,0.2c0.2,0.2,0.3,0.5,0.1,0.9h6c0,0,0.1-0.1,0.3-0.2c0.1-0.1,0.3-0.2,0.4-0.2
	c0.1-0.1,0.3-0.1,0.4-0.2s0.2-0.1,0.3-0.1c0,0,0.1,0,0.2,0.1c0.1,0,0.2,0.1,0.3,0.1c0.1,0,0.2,0.1,0.3,0.1c0.1,0,0.2,0,0.2,0h0.2
	c0.4,0,0.9,0,1.4-0.1s1-0.2,1.5-0.4c0.5-0.2,0.9-0.4,1.4-0.6c0.4-0.2,0.8-0.4,1.2-0.7v-0.3v-0.4c0-0.1-0.1-0.4-0.1-0.8
	c-0.1-0.4-0.1-0.8-0.2-1.2c-0.1-0.4-0.1-0.8-0.2-1.2c-0.1-0.4-0.1-0.6-0.1-0.8c0.1-0.6,0.4-1.1,0.8-1.4c0.4-0.4,0.8-0.6,1.3-0.8
	c0.5-0.2,1-0.3,1.5-0.3s1-0.1,1.5-0.1c0-0.1,0-0.3-0.1-0.4c-0.1-0.2-0.1-0.3-0.1-0.4s0-0.3,0.1-0.3c0.1-0.1,0.3-0.1,0.6-0.1
	c0,0.1,0.1,0.2,0.1,0.4c0,0.2,0.1,0.3,0.1,0.5s0.1,0.4,0.1,0.5c0,0.2,0.1,0.3,0.1,0.4v0.2c0,0.2,0,0.3-0.1,0.4S74,19.3,74,19.4
	c-0.1,0.1-0.2,0.2-0.2,0.3c-0.1,0.1-0.1,0.3-0.1,0.5c0,0.8,0.1,1.6,0.2,2.4c0.2,0.8,0.3,1.6,0.5,2.3c0.1,0.2,0.2,0.3,0.3,0.3
	c0.1,0,0.3,0.1,0.4,0.1c0.3,0,0.5-0.1,0.7-0.2c0.1-0.2,0.3-0.4,0.4-0.8l6.3-0.9h-3.2c0-0.1,0.1-0.2,0.1-0.4c0-0.2,0.1-0.4,0.1-0.6
	s0.1-0.4,0.1-0.6s0-0.3,0-0.4V21c0-0.3,0-0.5-0.1-0.6s-0.3-0.3-0.6-0.6h2.3v-1.6h2.5v1.4c0-0.1,0-0.2,0.1-0.5c0-0.2,0-0.5,0.1-0.7
	c0-0.3,0-0.5,0.1-0.8c0-0.2,0-0.4,0-0.5c0-0.3-0.1-0.8-0.1-1.4c0-0.6-0.1-1.3-0.2-2.1c-0.1-0.8-0.1-1.6-0.2-2.5s-0.2-1.7-0.2-2.5
	c-0.1-0.8-0.1-1.5-0.2-2.1S83,5.4,82.9,5.1c-0.3-0.5-0.7-1-1.1-1.5s-0.9-0.9-1.4-1.3c0.1,0,0.3,0,0.5-0.1C81.2,2.1,81.3,2,81.4,2
	V1.9V1.7h2c0,0,0,0,0.1,0c0.1,0.1,0.1,0.1,0.1,0c-0.1-0.1-0.4-0.2-0.6-0.3c-0.3-0.1-0.4-0.3-0.4-0.5V0.8V0.7c0,0,0.1-0.1,0.3-0.2
	c0.1-0.1,0.3-0.2,0.4-0.2c0.2-0.1,0.3-0.1,0.4-0.2S83.9,0,84,0c0.4,0,0.8,0,1.2,0.2c0.4,0.2,0.6,0.5,0.6,0.9c0,0,0,0.2,0,0.3
	c0,0-0.1,0.1-0.2,0.1s-0.2,0.1-0.3,0.1c-0.1,0-0.2,0-0.3,0.1c-0.1,0-0.2,0.1-0.2,0.1c-0.1,0.1,0,0.2,0.2,0.5h1.2
	c-0.1,0.2-0.3,0.4-0.6,0.5c-0.3,0.1-0.5,0.1-0.8,0.2c-0.3,0-0.6,0-0.8,0c-0.3,0-0.4-0.1-0.6-0.1c0,0.1,0.1,0.2,0.1,0.4
	c0,0.2,0.1,0.4,0.1,0.6c0,0.2,0.1,0.5,0.1,0.7s0.1,0.3,0.1,0.4c0,0,0,0.1,0,0.2s0,0.2,0,0.2c0.2,0,0.4,0,0.6-0.1s0.4,0,0.5,0.4
	l-0.7,0.4c0,0,0,0.1-0.1,0.3c0,0.2,0,0.3,0,0.4c0,0,0,0.1,0,0.3c0,0.1,0,0.3,0,0.4c0,0.2,0.1,0.3,0.1,0.4c0.1,0.1,0.2,0.2,0.3,0.2
	v2.5c0,0.1,0.1,0.2,0.3,0.3c0.2,0.1,0.4,0.2,0.5,0.3c0.2,0.1,0.2,0.1,0.3,0.1l-0.7,0.4c0,0.4,0,0.7,0,0.8c0,0.9,0.1,1.7,0.2,2.6
	s0.3,1.7,0.6,2.5c0-0.1,0-0.3,0.1-0.5c0.1-0.3,0.2-0.4,0.2-0.5c0,0,0,0,0.1-0.1h0.1h0.1c0,0,0.1,0,0.1,0.1c0,0,0.1,0.1,0.1,0.2
	s0.1,0.2,0.1,0.3c0,0.1,0.1,0.2,0.1,0.3c0,0.1,0,0.2,0.1,0.2c0,0,0,0,0.1,0.1H87c0.1,0,0.1,0,0.2-0.1c0-0.1,0.1-0.3,0.1-0.5
	c0.1-0.3,0.1-0.6,0.2-0.8c0.1-0.3,0.1-0.6,0.2-0.8c0.1-0.3,0.1-0.5,0.1-0.6c0,0,0.1-0.1,0.2-0.2s0.1-0.1,0.2-0.2c0.1,0,0.2,0,0.2,0
	c0.3,0,0.5,0.1,0.7,0.4s0.4,0.6,0.5,1c0.1,0.4,0.2,0.8,0.3,1.1c0.1,0.4,0.1,0.6,0.1,0.8h8.3V19c0.1,0,0.2,0,0.5,0.1
	c0.2,0,0.4,0.1,0.7,0.1c0.2,0,0.5,0.1,0.7,0.1s0.4,0.1,0.5,0.1s0.3,0.1,0.4,0.2c0.2,0.1,0.3,0.1,0.3,0.2V23c-0.3-0.1-0.5-0.1-0.6,0
	s-0.1,0.2-0.1,0.3c0,0.1,0.1,0.3,0.1,0.4c0.1,0.1,0.1,0.2,0.1,0.3c0.3,0,0.6,0,0.8,0.1c0.2,0,0.4,0,0.5,0s0.2-0.2,0.2-0.3
	c0-0.2,0.1-0.5,0.1-1c0.5,0,1.1,0.1,1.5,0.3c0.5,0.2,0.9,0.5,1.2,1h3.5c0.1,0.2,0.1,0.4,0.2,0.5c0,0.2,0.1,0.3,0.1,0.5
	s0.1,0.3,0.1,0.4s0.1,0.3,0.1,0.6c0,0.3,0.1,0.6,0.1,0.9s0.1,0.6,0.1,0.8c0,0.3,0,0.4,0,0.5c0,0,0.2,0,0.4,0s0.3,0,0.4,0
	c0.2,0,0.4,0,0.6,0c0.2,0,0.5,0,0.7-0.1s0.4-0.1,0.6-0.3c0.2-0.1,0.3-0.3,0.3-0.5h3.5l-1.8-0.9c0-0.1,0-0.2,0-0.3
	c0-0.4,0.1-0.7,0.4-0.7c0.3,0,0.6-0.1,0.9-0.1c0.9,0,1.8,0,2.6,0.1s1.7,0.2,2.8,0.3c-0.1,0-0.2,0-0.4,0.1c-0.2,0-0.4,0.1-0.7,0.1
	c-0.2,0-0.5,0.1-0.6,0.1c-0.2,0-0.3,0.1-0.4,0.1c-0.1,0-0.3,0.1-0.6,0.2s-0.4,0.1-0.4,0.2c0,0,0,0.2,0.1,0.4
	c0.1,0.2,0.2,0.4,0.2,0.4c0.4,0,0.7,0,0.9,0c0.3,0,0.5,0,0.7,0.1c0.2,0,0.4,0,0.7,0.1c0.2,0,0.5,0,0.7,0h0.2l-0.4-0.4
	c0.9-0.2,1.7-0.3,2.6-0.4c0.9,0,1.8,0,2.7,0l-0.4-0.4c1.1-0.3,2.3-0.5,3.6-0.6c1.3-0.2,2.5-0.2,3.7-0.1l-0.4-0.4
	c0,0,0.2-0.1,0.4-0.2s0.3-0.1,0.4-0.2c0,0,0.1-0.2,0.2-0.4c0.1-0.3,0.2-0.5,0.3-0.7s0.1-0.3,0.2-0.4V27l-2.5,12.7
	c-0.1,0.5-0.3,0.8-0.6,0.8c-0.3,0.1-0.7,0.2-1.2,0.2c-0.3,0-0.8,0.1-1.5,0.1s-1.5,0.1-2.3,0.1s-1.6,0.1-2.3,0.1s-1.2,0-1.5,0
	c-0.2,0.2-0.4,0.3-0.6,0.3c-0.2,0-0.4,0-0.7,0h-0.8c-1.2,0-2.9,0-5,0s-4.5,0-7.2,0s-5.6,0-8.8,0s-6.5,0-9.9,0s-6.9,0-10.4-0.1
	c-3.5,0-7,0-10.4,0s-6.7,0-9.9,0c-3.2,0-6.1,0-8.8,0c-2.7,0-5.1,0-7.2,0s-3.7,0-5,0c-0.6-0.1-1.1-0.1-1.6-0.2s-0.9-0.1-1.3-0.1
	s-0.8-0.1-1.1-0.1c-0.4,0-0.8,0-1.2,0L29.6,40.8L29.6,40.8z M0.3,31C0.1,31,0,31.1,0,31.4c0,0.2,0.1,0.4,0.3,0.4s0.3-0.1,0.3-0.4
	C0.6,31.2,0.5,31,0.3,31z M6.3,31.7c-0.2,0-0.3,0.1-0.3,0.4c0,0.2,0.1,0.4,0.3,0.4s0.3-0.1,0.3-0.4C6.6,31.9,6.5,31.7,6.3,31.7z
	 M8.8,31.4c0.1,0.1,0.3,0.2,0.5,0.2s0.4-0.1,0.5-0.2c0,0,0-0.1-0.1-0.1s-0.3,0-0.4,0c-0.2,0-0.3,0-0.4,0C8.8,31.3,8.7,31.3,8.8,31.4
	z M8.8,32.1c0.1,0.1,0.3,0.2,0.5,0.2s0.4-0.1,0.5-0.2c0,0,0-0.1-0.1-0.1s-0.3,0-0.4,0c-0.2,0-0.3,0-0.4,0C8.8,32,8.7,32.1,8.8,32.1z
	 M10.5,31.4c0.1,0.1,0.4,0.2,0.7,0.2c0.4,0,0.6-0.1,0.7-0.2c0,0,0-0.1-0.2-0.1s-0.3,0-0.5,0s-0.4,0-0.5,0
	C10.5,31.3,10.5,31.3,10.5,31.4z M10.5,32.1c0.1,0.1,0.4,0.2,0.7,0.2c0.4,0,0.6-0.1,0.7-0.2c0,0,0-0.1-0.2-0.1s-0.3,0-0.5,0
	s-0.4,0-0.5,0C10.5,32,10.5,32.1,10.5,32.1z M18.6,39.8l-7.7-0.7h-0.4v1.5c0.2,0,0.6,0,1.2,0c0.6,0,1.2,0,1.8-0.1
	c0.6,0,1.2,0,1.8-0.1c0.6,0,1,0,1.2,0s0.4,0,0.6-0.1c0.2,0,0.5-0.1,0.7-0.1s0.4-0.1,0.6-0.1c0.2,0,0.2-0.1,0.2-0.1V39.8z M13,32.1
	c0.2,0.1,0.5,0.2,0.9,0.2s0.7-0.1,0.9-0.2c0.1,0,0-0.1-0.2-0.1s-0.4,0-0.7,0s-0.5,0-0.7,0S12.9,32.1,13,32.1z M13,31.4
	c0.1,0,0.2,0.1,0.4,0.1s0.4,0.1,0.6,0.1c0.2,0,0.5,0,0.6-0.1c0.2,0,0.3-0.1,0.4-0.1c0.1,0,0-0.1-0.2-0.1s-0.5,0-0.8,0s-0.6,0-0.8,0
	S12.9,31.3,13,31.4z M15.8,31.4c0.2,0.1,0.5,0.2,0.9,0.2s0.7-0.1,0.9-0.2c0.1,0,0-0.1-0.2-0.1s-0.4,0-0.7,0s-0.5,0-0.7,0
	S15.7,31.3,15.8,31.4z M20,40.2c0.1,0,0.3,0.1,0.6,0.1s0.6,0.1,0.9,0.1c0.3,0,0.6,0,0.9-0.1c0.3,0,0.5-0.1,0.6-0.1s0-0.1-0.3-0.1
	c-0.4,0-0.8,0-1.2,0h-0.9C20.5,40,20.3,40.1,20,40.2C20,40.1,19.9,40.2,20,40.2z M20,31.4c0,0.1,0.1,0.2,0.2,0.2
	c0.1,0,0.2-0.1,0.2-0.2s0-0.2-0.2-0.2C20,31.2,20,31.3,20,31.4z M20,32.1c0,0.1,0.1,0.2,0.2,0.2c0.1,0,0.2-0.1,0.2-0.2
	s0-0.2-0.2-0.2S20,32,20,32.1z M21.1,31.7c-0.2,0-0.3,0.1-0.3,0.4c0,0.2,0.1,0.4,0.3,0.4s0.3-0.1,0.3-0.4
	C21.4,31.9,21.3,31.7,21.1,31.7z M34.4,27.5c0.1,0.1,0.3,0.2,0.5,0.2s0.4-0.1,0.5-0.2c0,0,0-0.1-0.1-0.1s-0.3,0-0.4,0
	c-0.2,0-0.3,0-0.4,0S34.4,27.5,34.4,27.5z M36.2,27.2c-0.2,0-0.3,0.1-0.3,0.4c0,0.2,0.1,0.4,0.3,0.4c0.2,0,0.3-0.1,0.3-0.4
	C36.5,27.3,36.4,27.2,36.2,27.2z M37.6,27.5c0.2,0.1,0.5,0.2,0.9,0.2s0.7-0.1,0.9-0.2c0.1,0,0-0.1-0.2-0.1s-0.4,0-0.7,0
	c-0.3,0-0.5,0-0.7,0C37.6,27.4,37.5,27.5,37.6,27.5z M40.1,27.5c0,0.1,0.1,0.2,0.2,0.2s0.2-0.1,0.2-0.2s0-0.2-0.2-0.2
	C40.1,27.4,40,27.4,40.1,27.5z M41.5,27.2c-0.2,0-0.3,0.1-0.3,0.4c0,0.2,0.1,0.4,0.3,0.4c0.2,0,0.3-0.1,0.3-0.4
	C41.7,27.3,41.6,27.2,41.5,27.2z M42.2,27.9c-0.2,0-0.3,0.1-0.3,0.4c0,0.2,0.1,0.3,0.3,0.3c0.2,0,0.3-0.1,0.3-0.3
	C42.4,28,42.3,27.9,42.2,27.9z M42.2,27.5c0,0.1,0.1,0.2,0.2,0.2s0.2-0.1,0.2-0.2s0-0.2-0.2-0.2C42.2,27.4,42.1,27.4,42.2,27.5z
	 M43.2,27.2c-0.2,0-0.3,0.1-0.3,0.4c0,0.2,0.1,0.4,0.3,0.4c0.2,0,0.3-0.1,0.3-0.4C43.5,27.3,43.4,27.2,43.2,27.2z M43.9,28.2
	c0,0.1,0.2,0.2,0.4,0.2c0.2,0,0.3-0.1,0.4-0.2c0,0,0-0.1-0.1-0.1s-0.2,0-0.3,0c-0.1,0-0.2,0-0.3,0C43.9,28.2,43.9,28.2,43.9,28.2z
	 M45.3,28.9c0,0.1,0.2,0.2,0.4,0.2c0.2,0,0.3-0.1,0.4-0.2c0,0,0-0.1-0.1-0.1s-0.2,0-0.3,0c-0.1,0-0.2,0-0.3,0
	C45.3,28.9,45.3,28.9,45.3,28.9z M46.4,27.9c-0.2,0-0.3,0.1-0.3,0.4c0,0.2,0.1,0.3,0.3,0.3c0.2,0,0.3-0.1,0.3-0.3
	C46.7,28,46.6,27.9,46.4,27.9z M47.1,28.2c0,0.1,0.1,0.2,0.2,0.2s0.2-0.1,0.2-0.2s0-0.2-0.2-0.2C47.1,28.1,47,28.1,47.1,28.2z
	 M47.1,28.9c0,0.1,0.1,0.2,0.2,0.2s0.2-0.1,0.2-0.2s0-0.2-0.2-0.2C47.1,28.8,47,28.8,47.1,28.9z M54.8,27.9c-0.2,0-0.3,0.1-0.3,0.4
	c0,0.2,0.1,0.3,0.3,0.3c0.2,0,0.3-0.1,0.3-0.3C55.1,28,55,27.9,54.8,27.9z M58.3,28.2c0,0.1,0.2,0.2,0.4,0.2c0.2,0,0.3-0.1,0.4-0.2
	c0,0,0-0.1-0.1-0.1s-0.2,0-0.3,0c-0.1,0-0.2,0-0.3,0C58.3,28.2,58.3,28.2,58.3,28.2z M58.7,28.6c-0.2,0-0.3,0.1-0.3,0.4
	c0,0.2,0.1,0.4,0.3,0.4c0.2,0,0.3-0.1,0.3-0.4S58.9,28.6,58.7,28.6z M59.7,28.2c0,0.1,0.2,0.2,0.4,0.2c0.2,0,0.3-0.1,0.4-0.2
	c0,0,0-0.1-0.1-0.1s-0.2,0-0.3,0c-0.1,0-0.2,0-0.3,0C59.7,28.2,59.7,28.2,59.7,28.2z M77,24.7h-0.8c0,0.3,0.1,0.5,0.2,0.8
	c0.1,0.2,0.3,0.4,0.7,0.4L77,24.7L77,24.7z M77.7,24.7c-0.1,0.1-0.2,0.3-0.2,0.5s0.1,0.4,0.2,0.5c0,0,0.1,0,0.1-0.1s0.1-0.3,0.1-0.4
	c0-0.2,0-0.3-0.1-0.4S77.7,24.7,77.7,24.7z M78.7,24.7h-0.4v1.1h0.4V24.7z M79.4,24.7c-0.1,0.1-0.2,0.3-0.2,0.5s0.1,0.4,0.2,0.5
	c0,0,0.1,0,0.1-0.1s0.1-0.3,0.1-0.4c0-0.2,0-0.3-0.1-0.4C79.5,24.7,79.5,24.7,79.4,24.7z M80.5,24.7h-0.3v1.1h0.3V24.7z M81.7,2.8
	c0,0-0.1,0-0.3,0c-0.1,0-0.2,0-0.3,0.1c0.1,0.1,0.2,0.2,0.2,0.3c0.1,0.1,0.2,0.3,0.3,0.4c0.1,0.1,0.2,0.3,0.3,0.4
	c0.1,0.1,0.2,0.2,0.2,0.3c0,0,0.1,0.1,0.2,0.2s0.1,0.1,0.2,0.2V4.3c0-0.4,0-0.7-0.1-1C82.4,3,82.1,2.8,81.7,2.8z M81.5,24.4h-0.4
	v1.4h0.4V24.4z M82.2,24.4c-0.1,0.1-0.2,0.4-0.2,0.7c0,0.3,0.1,0.6,0.2,0.7c0,0,0.1,0,0.1-0.2s0.1-0.3,0.1-0.5s0-0.4-0.1-0.5
	C82.3,24.4,82.3,24.3,82.2,24.4z M83.6,4.3c0.2,0,0.3,0.1,0.3,0.4c0,0.2-0.1,0.3-0.3,0.3c-0.2,0-0.3-0.1-0.3-0.3
	C83.3,4.5,83.4,4.3,83.6,4.3z M84,4c0.1,0,0.2,0,0.2,0.2S84.1,4.4,84,4.4s-0.2-0.1-0.2-0.2S83.9,4,84,4z M84.3,3.3
	c0.2,0,0.3,0.1,0.3,0.4c0,0.2-0.1,0.3-0.3,0.3C84.1,4,84,3.9,84,3.7C84,3.4,84.1,3.3,84.3,3.3z M84.3,8.9c0.2,0,0.3,0.1,0.3,0.3
	c0,0.2-0.1,0.4-0.3,0.4c-0.2,0-0.3-0.1-0.3-0.4C84,9,84.1,8.9,84.3,8.9z M84.7,2.9C84.9,2.9,85,3,85,3.3c0,0.2-0.1,0.4-0.3,0.4
	c-0.2,0-0.3-0.1-0.3-0.4C84.4,3,84.5,2.9,84.7,2.9z M84.7,10c0.2,0,0.3,0.1,0.3,0.4c0,0.2-0.1,0.4-0.3,0.4c-0.2,0-0.3-0.1-0.3-0.4
	C84.4,10.1,84.5,10,84.7,10z M89.6,18.4c0,0.1,0.1,0.2,0.2,0.2s0.1-0.1,0.2-0.2c0-0.1,0-0.2-0.2-0.2C89.6,18.2,89.6,18.3,89.6,18.4z
	 M89.6,19.1c0,0.1,0.1,0.2,0.2,0.2s0.1-0.1,0.2-0.2c0-0.1,0-0.2-0.2-0.2S89.6,19,89.6,19.1z M90.7,18.4c0.1,0.1,0.2,0.2,0.5,0.2
	s0.5-0.1,0.5-0.2c0,0,0-0.1-0.1-0.1s-0.3,0-0.4,0s-0.3,0-0.4,0S90.6,18.3,90.7,18.4z M90.7,19.1c0.1,0.1,0.2,0.2,0.5,0.2
	s0.5-0.1,0.5-0.2c0,0,0-0.1-0.1-0.1s-0.3,0-0.4,0s-0.3,0-0.4,0S90.6,19,90.7,19.1z M92.4,18.4c0.1,0.1,0.2,0.2,0.5,0.2
	s0.5-0.1,0.5-0.2c0,0,0-0.1-0.1-0.1s-0.3,0-0.4,0s-0.3,0-0.4,0S92.4,18.3,92.4,18.4z M92.4,19.1c0.1,0.1,0.2,0.2,0.5,0.2
	s0.5-0.1,0.5-0.2c0,0,0-0.1-0.1-0.1s-0.3,0-0.4,0s-0.3,0-0.4,0S92.4,19,92.4,19.1z M94.2,19.1c0.1,0.1,0.4,0.2,0.7,0.2
	c0.4,0,0.6-0.1,0.7-0.2c0,0,0-0.1-0.2-0.1s-0.3,0-0.5,0s-0.4,0-0.5,0C94.2,19,94.1,19,94.2,19.1z M94.2,18.4
	c0.1,0.1,0.2,0.2,0.5,0.2s0.5-0.1,0.5-0.2c0,0,0-0.1-0.1-0.1s-0.3,0-0.4,0s-0.3,0-0.4,0S94.1,18.3,94.2,18.4z M96.3,18.4
	c0,0.1,0.2,0.2,0.4,0.2s0.3-0.1,0.4-0.2c0,0,0-0.1-0.1-0.1s-0.2,0-0.3,0s-0.2,0-0.3,0C96.3,18.3,96.3,18.3,96.3,18.4z M96.6,19.1
	c0,0.1,0.1,0.2,0.2,0.2s0.1-0.1,0.2-0.2c0-0.1,0-0.2-0.2-0.2S96.6,19,96.6,19.1z M100.1,25.4c-0.2,0-0.3,0.1-0.3,0.4
	c0,0.2,0.1,0.3,0.3,0.3s0.3-0.1,0.3-0.3C100.4,25.5,100.3,25.4,100.1,25.4z M100.1,25.1c0,0.1,0.2,0.2,0.3,0.2
	c0.2,0,0.3-0.1,0.4-0.2c0,0,0-0.1-0.1-0.1s-0.2,0-0.3,0s-0.2,0-0.3,0C100.2,25,100.1,25,100.1,25.1z M104,24.7
	c0.1,0.1,0.2,0.2,0.5,0.2s0.5-0.1,0.5-0.2c0,0,0-0.1-0.1-0.1s-0.3,0-0.4,0c-0.1,0-0.3,0-0.4,0C104,24.6,104,24.7,104,24.7z
	 M104.4,25.4c0.1,0.1,0.2,0.2,0.5,0.2s0.5-0.1,0.5-0.2c0,0,0-0.1-0.1-0.1s-0.3,0-0.4,0c-0.1,0-0.3,0-0.4,0
	C104.4,25.3,104.3,25.4,104.4,25.4z M106.5,24.4c0.1,0.1,0.2,0.2,0.5,0.2s0.5-0.1,0.5-0.2c0,0,0-0.1-0.1-0.1s-0.3,0-0.4,0
	c-0.1,0-0.3,0-0.4,0C106.5,24.3,106.4,24.3,106.5,24.4z M106.5,25.1c0.1,0.1,0.2,0.2,0.5,0.2s0.5-0.1,0.5-0.2c0,0,0-0.1-0.1-0.1
	s-0.3,0-0.4,0c-0.1,0-0.3,0-0.4,0C106.5,25,106.4,25,106.5,25.1z M120.5,25.1c0.2,0,0.3,0.1,0.3,0.3c0,0.2-0.1,0.4-0.3,0.4
	s-0.3-0.1-0.3-0.4C120.2,25.2,120.3,25.1,120.5,25.1z M122.6,27.2c0,0.1,0.1,0.2,0.2,0.2c0.1,0,0.2-0.1,0.2-0.2s0-0.2-0.2-0.2
	S122.6,27.1,122.6,27.2z M123.7,27.5c0,0.1,0.1,0.2,0.2,0.2c0.1,0,0.2-0.1,0.2-0.2s0-0.2-0.2-0.2C123.7,27.4,123.6,27.4,123.7,27.5z
	 M126.5,26.8c-0.2,0-0.3,0.1-0.3,0.4c0,0.2,0.1,0.4,0.3,0.4s0.3-0.1,0.3-0.4S126.7,26.8,126.5,26.8z M127.6,26.1
	c-0.2,0-0.3,0.1-0.3,0.4c0,0.2,0.1,0.4,0.3,0.4s0.3-0.1,0.3-0.4C127.8,26.2,127.7,26.1,127.6,26.1z"/>
</svg>
