<?xml version="1.0" encoding="utf-8"?>
<!-- Generator: Adobe Illustrator 25.3.0, SVG Export Plug-In . SVG Version: 6.00 Build 0)  -->
<svg version="1.1" id="Calque_1" xmlns="http://www.w3.org/2000/svg" xmlns:xlink="http://www.w3.org/1999/xlink" x="0px" y="0px"
	 viewBox="0 0 427.8 170.4" style="enable-background:new 0 0 427.8 170.4;" xml:space="preserve">
<g transform="matrix(1, 0, 0, 1, 0, 0)">
	<path d="M196.7,39.1h150.5v-1.9c0-16-13-29-29-29h-52.1C239.5,8.1,214.3,19.5,196.7,39.1z M319.2,19.2h8.6v7.5h-8.6V19.2z
		 M298.5,19.2h8.6v7.5h-8.6V19.2z M277.8,19.2h8.6v7.5h-8.6V19.2z M257.1,19.2h8.6v7.5h-8.6V19.2z M236.4,19.2h8.6v7.5h-8.6V19.2z"
		/>
	<path d="M5.2,56.2c-2.9,0-5.2,2.3-5.2,5.2v48.2c0,2.9,2.3,5.2,5.2,5.2c2.9,0,5.2-2.3,5.2-5.2v-19h5v-8.8h-5V61.4
		C10.4,58.6,8.1,56.2,5.2,56.2z"/>
	<path d="M33,32.4c0,7.6,0,19.2,0,29.9l49.1-12.4L62.3,0C62.3,0.1,33,15.2,33,32.4z"/>
	<path d="M81.9,121.1L33,108.8c0,10.5,0,21.9,0,29.3c0,17.2,29.3,32.3,29.3,32.3L81.9,121.1z"/>
	<path d="M427.8,85.5c0-23.1-18.7-41.8-41.8-41.8h-38.8H192.7h-66.8L83.8,54.3L32.9,67.1l-2.4,0.6C24.3,69.3,20,74.4,20,79.3v2.5
		v8.8v1.1c0,5,4.3,10,10.5,11.6l2.4,0.6l50.6,12.7l42.3,10.6h260C409.1,127.3,427.8,108.6,427.8,85.5L427.8,85.5z M142.8,65.8h-8.6
		v-7.5h8.6V65.8z M163.5,65.8h-8.6v-7.5h8.6V65.8z M184.2,65.8h-8.6v-7.5h8.6V65.8z M204.9,65.8h-8.6v-7.5h8.6V65.8z M225.5,65.8
		h-8.6v-7.5h8.6V65.8z M247.8,65.8h-8.6v-7.5h8.6V65.8z M268.5,65.8h-8.6v-7.5h8.6V65.8z M289.2,65.8h-8.6v-7.5h8.6V65.8z
		 M309.9,65.8h-8.6v-7.5h8.6V65.8z M330.6,65.8H322v-7.5h8.6V65.8z M350.6,65.8H342v-7.5h8.6V65.8z M371.3,65.8h-8.6v-7.5h8.6V65.8z
		"/>
</g>
</svg>
